# xmcd
#
# Track frame offsets:
#	151
#	26822
#	51716
#	83783
#	109112
#	145031
#	163178
#	176880
#	209838
#	239697
#	264102
#	280001
#	313807
#
# Disc length: 4646 seconds
#
# Revision: 1
# Processed by: cddbd v1.5PL3 Copyright (c) Steve Scherf et al.
# Submitted via: CDmax 2.0
#
DISCID=c812240d
DTITLE=Jorma Kaukonen, Jack Casady and Barry Mitterhoff - Bardavon 1869 Opera H
DTITLE=ouse, Poughkeepsie, NY - 11.30.03 - D1
DYEAR=2003
DGENRE=Blues
TTITLE0=Search My Heart
TTITLE1=New Song (For The Morning)
TTITLE2=Death Don't Have No Mercy
TTITLE3=Do Not Go Gentle
TTITLE4=Serpent Of Dreams
TTITLE5=Waiting For A Train
TTITLE6=Fur Peace Rag
TTITLE7=Come Back Baby
TTITLE8=Nobody Knows You When You're Down And Out
TTITLE9=Tom Cat Blues
TTITLE10=Red River Blues
TTITLE11=Blue Railroad Train
TTITLE12=Candy Man
EXTD=11-30-03\nBardavon 1869 Opera House, Poughkeepsie, NY\nw/Barry Mitterhof
EXTD=f - Mandolin\nOpening act: Paul Curreri\n\nSoundcheck:\nThat'll Never Ha
EXTD=ppen No More\nNew Song (For The Morning]\nSerpent Of Dreams\nI'll Let Yo
EXTD=u Know Before I Leave\nProhibition Blues\nFur Peace Rag\n\nSet 1:\nSearc
EXTD=h My Heart\nNew Song (For The Morning]\nDeath Don't Have No Mercy\nDo No
EXTD=t Go Gentle\nSerpent Of Dreams\nWaiting For A Train\nFur Peace Rag\nCom
EXTD=e Back Baby\nNobody Knows You When You're Down And Out\nTom Cat Blues\nR
EXTD=ed River Blues\n\nSet 2:\nBlue Railroad Train\nCandy Man\nAnother Man Do
EXTD=ne Gone >\nKeep Your Lamps Trimmed And Burning\nI See The Light\nI'll Le
EXTD=t You Know Before I Leave\nProhibition Blues\nHeart Temporary\nLiving I
EXTD=n The Moment\nGood Shepherd\nI Am The Light Of This World\nSan Francisc
EXTD=o Bay Blues\n\nEncore:\nNine Pound Hammer
EXTT0=
EXTT1=
EXTT2=
EXTT3=
EXTT4=
EXTT5=
EXTT6=
EXTT7=
EXTT8=
EXTT9=
EXTT10=
EXTT11=
EXTT12=
PLAYORDER=
